<mxfile host="app.diagrams.net" modified="2023-12-22T11:56:48.309Z" agent="Mozilla/5.0 (Macintosh; Intel Mac OS X 10_15_7) AppleWebKit/537.36 (KHTML, like Gecko) Chrome/120.0.0.0 Safari/537.36" etag="mpD2fK-aWVYQcfd9aB4o" version="22.1.11" type="github">
  <diagram id="C5RBs43oDa-KdzZeNtuy" name="Page-1">
    <mxGraphModel dx="954" dy="620" grid="1" gridSize="10" guides="1" tooltips="1" connect="1" arrows="1" fold="1" page="1" pageScale="1" pageWidth="827" pageHeight="1169" math="0" shadow="0">
      <root>
        <mxCell id="WIyWlLk6GJQsqaUBKTNV-0" />
        <mxCell id="WIyWlLk6GJQsqaUBKTNV-1" parent="WIyWlLk6GJQsqaUBKTNV-0" />
        <mxCell id="VfinD1_xwzHGZOxoqFZh-10" style="edgeStyle=orthogonalEdgeStyle;rounded=0;orthogonalLoop=1;jettySize=auto;html=1;exitX=1;exitY=0.5;exitDx=0;exitDy=0;" edge="1" parent="WIyWlLk6GJQsqaUBKTNV-1" source="WIyWlLk6GJQsqaUBKTNV-11" target="VfinD1_xwzHGZOxoqFZh-2">
          <mxGeometry relative="1" as="geometry" />
        </mxCell>
        <mxCell id="WIyWlLk6GJQsqaUBKTNV-11" value="Decarbonizing" style="rounded=1;whiteSpace=wrap;html=1;fontSize=12;glass=0;strokeWidth=1;shadow=0;" parent="WIyWlLk6GJQsqaUBKTNV-1" vertex="1">
          <mxGeometry x="290" y="40" width="120" height="40" as="geometry" />
        </mxCell>
        <mxCell id="VfinD1_xwzHGZOxoqFZh-8" style="edgeStyle=orthogonalEdgeStyle;rounded=0;orthogonalLoop=1;jettySize=auto;html=1;exitX=1;exitY=0.5;exitDx=0;exitDy=0;entryX=0;entryY=0.5;entryDx=0;entryDy=0;" edge="1" parent="WIyWlLk6GJQsqaUBKTNV-1" source="VfinD1_xwzHGZOxoqFZh-0" target="VfinD1_xwzHGZOxoqFZh-1">
          <mxGeometry relative="1" as="geometry" />
        </mxCell>
        <mxCell id="VfinD1_xwzHGZOxoqFZh-0" value="Water desinfection" style="rounded=1;whiteSpace=wrap;html=1;" vertex="1" parent="WIyWlLk6GJQsqaUBKTNV-1">
          <mxGeometry x="20" y="30" width="120" height="60" as="geometry" />
        </mxCell>
        <mxCell id="VfinD1_xwzHGZOxoqFZh-9" style="edgeStyle=orthogonalEdgeStyle;rounded=0;orthogonalLoop=1;jettySize=auto;html=1;exitX=1;exitY=0.5;exitDx=0;exitDy=0;entryX=0;entryY=0.5;entryDx=0;entryDy=0;" edge="1" parent="WIyWlLk6GJQsqaUBKTNV-1" source="VfinD1_xwzHGZOxoqFZh-1" target="WIyWlLk6GJQsqaUBKTNV-11">
          <mxGeometry relative="1" as="geometry" />
        </mxCell>
        <mxCell id="VfinD1_xwzHGZOxoqFZh-1" value="Sand filter" style="rounded=1;whiteSpace=wrap;html=1;" vertex="1" parent="WIyWlLk6GJQsqaUBKTNV-1">
          <mxGeometry x="160" y="30" width="120" height="60" as="geometry" />
        </mxCell>
        <mxCell id="VfinD1_xwzHGZOxoqFZh-11" style="edgeStyle=orthogonalEdgeStyle;rounded=0;orthogonalLoop=1;jettySize=auto;html=1;exitX=1;exitY=0.5;exitDx=0;exitDy=0;entryX=0;entryY=0.5;entryDx=0;entryDy=0;" edge="1" parent="WIyWlLk6GJQsqaUBKTNV-1" source="VfinD1_xwzHGZOxoqFZh-2" target="VfinD1_xwzHGZOxoqFZh-3">
          <mxGeometry relative="1" as="geometry" />
        </mxCell>
        <mxCell id="VfinD1_xwzHGZOxoqFZh-2" value="carbon filter" style="rounded=1;whiteSpace=wrap;html=1;" vertex="1" parent="WIyWlLk6GJQsqaUBKTNV-1">
          <mxGeometry x="420" y="30" width="120" height="60" as="geometry" />
        </mxCell>
        <mxCell id="VfinD1_xwzHGZOxoqFZh-3" value="Polishing filter" style="rounded=1;whiteSpace=wrap;html=1;" vertex="1" parent="WIyWlLk6GJQsqaUBKTNV-1">
          <mxGeometry x="560" y="30" width="120" height="60" as="geometry" />
        </mxCell>
        <mxCell id="VfinD1_xwzHGZOxoqFZh-7" style="edgeStyle=orthogonalEdgeStyle;rounded=0;orthogonalLoop=1;jettySize=auto;html=1;exitX=1;exitY=0.5;exitDx=0;exitDy=0;entryX=0;entryY=0.5;entryDx=0;entryDy=0;" edge="1" parent="WIyWlLk6GJQsqaUBKTNV-1" source="VfinD1_xwzHGZOxoqFZh-4" target="VfinD1_xwzHGZOxoqFZh-5">
          <mxGeometry relative="1" as="geometry" />
        </mxCell>
        <mxCell id="VfinD1_xwzHGZOxoqFZh-4" value="Sugar heated" style="rounded=1;whiteSpace=wrap;html=1;" vertex="1" parent="WIyWlLk6GJQsqaUBKTNV-1">
          <mxGeometry x="20" y="120" width="120" height="60" as="geometry" />
        </mxCell>
        <mxCell id="VfinD1_xwzHGZOxoqFZh-13" style="edgeStyle=orthogonalEdgeStyle;rounded=0;orthogonalLoop=1;jettySize=auto;html=1;exitX=1;exitY=0.5;exitDx=0;exitDy=0;entryX=0;entryY=0.5;entryDx=0;entryDy=0;" edge="1" parent="WIyWlLk6GJQsqaUBKTNV-1" source="VfinD1_xwzHGZOxoqFZh-5" target="VfinD1_xwzHGZOxoqFZh-12">
          <mxGeometry relative="1" as="geometry" />
        </mxCell>
        <mxCell id="VfinD1_xwzHGZOxoqFZh-5" value="Simple Syrup" style="rounded=1;whiteSpace=wrap;html=1;" vertex="1" parent="WIyWlLk6GJQsqaUBKTNV-1">
          <mxGeometry x="160" y="120" width="120" height="60" as="geometry" />
        </mxCell>
        <mxCell id="VfinD1_xwzHGZOxoqFZh-14" style="edgeStyle=orthogonalEdgeStyle;rounded=0;orthogonalLoop=1;jettySize=auto;html=1;exitX=1;exitY=0.5;exitDx=0;exitDy=0;" edge="1" parent="WIyWlLk6GJQsqaUBKTNV-1" source="VfinD1_xwzHGZOxoqFZh-6">
          <mxGeometry relative="1" as="geometry">
            <mxPoint x="330" y="200" as="targetPoint" />
          </mxGeometry>
        </mxCell>
        <mxCell id="VfinD1_xwzHGZOxoqFZh-6" value="Concentrated Syrup" style="rounded=1;whiteSpace=wrap;html=1;" vertex="1" parent="WIyWlLk6GJQsqaUBKTNV-1">
          <mxGeometry x="160" y="200" width="120" height="60" as="geometry" />
        </mxCell>
        <mxCell id="VfinD1_xwzHGZOxoqFZh-16" style="edgeStyle=orthogonalEdgeStyle;rounded=0;orthogonalLoop=1;jettySize=auto;html=1;exitX=1;exitY=0.5;exitDx=0;exitDy=0;entryX=0;entryY=0.5;entryDx=0;entryDy=0;" edge="1" parent="WIyWlLk6GJQsqaUBKTNV-1" source="VfinD1_xwzHGZOxoqFZh-12" target="VfinD1_xwzHGZOxoqFZh-15">
          <mxGeometry relative="1" as="geometry" />
        </mxCell>
        <mxCell id="VfinD1_xwzHGZOxoqFZh-12" value="Final Syrup" style="rounded=1;whiteSpace=wrap;html=1;" vertex="1" parent="WIyWlLk6GJQsqaUBKTNV-1">
          <mxGeometry x="330" y="170" width="120" height="60" as="geometry" />
        </mxCell>
        <mxCell id="VfinD1_xwzHGZOxoqFZh-15" value="Brix Measurement" style="rounded=1;whiteSpace=wrap;html=1;" vertex="1" parent="WIyWlLk6GJQsqaUBKTNV-1">
          <mxGeometry x="480" y="170" width="120" height="60" as="geometry" />
        </mxCell>
        <mxCell id="VfinD1_xwzHGZOxoqFZh-17" value="Bottle preforms" style="rounded=1;whiteSpace=wrap;html=1;" vertex="1" parent="WIyWlLk6GJQsqaUBKTNV-1">
          <mxGeometry x="20" y="330" width="120" height="60" as="geometry" />
        </mxCell>
        <mxCell id="VfinD1_xwzHGZOxoqFZh-18" value="" style="rounded=1;whiteSpace=wrap;html=1;" vertex="1" parent="WIyWlLk6GJQsqaUBKTNV-1">
          <mxGeometry x="160" y="330" width="120" height="60" as="geometry" />
        </mxCell>
      </root>
    </mxGraphModel>
  </diagram>
</mxfile>
